<?xml version="1.0" encoding="UTF-8" standalone="no"?>
<svg width="215px" height="31px" viewBox="0 0 215 31" version="1.1" xmlns="http://www.w3.org/2000/svg" xmlns:xlink="http://www.w3.org/1999/xlink" xmlns:sketch="http://www.bohemiancoding.com/sketch/ns">
    <!-- Generator: Sketch 3.2.2 (9983) - http://www.bohemiancoding.com/sketch -->
    <title>logo</title>
    <desc>Created with Sketch.</desc>
    <defs></defs>
    <g id="Page-1" stroke="none" stroke-width="1" fill="none" fill-rule="evenodd" sketch:type="MSPage">
        <g id="logo" sketch:type="MSLayerGroup" transform="translate(1.000000, -4.000000)">
            <text id="Solvia-Plus" sketch:type="MSTextLayer" font-family="ITCFranklinGothic LT Book" font-size="36" font-weight="bold" line-spacing="32" letter-spacing="-0.5" fill="#000000">
                <tspan x="0" y="34">Solvia</tspan>
                <tspan x="93.48" y="34" letter-spacing="-5"> </tspan>
                <tspan x="100.54" y="34" font-weight="normal">Plu</tspan>
                <tspan x="147.28" y="34" font-weight="normal">s</tspan>
            </text>
            <g id="Group-2" transform="translate(172.000000, 4.000000)" sketch:type="MSShapeGroup">
                <path d="M11.5405405,7.6875 C11.5405405,7.3125 11.3513514,6.975 11.0486486,6.7875 C10.7081081,6.6 10.1027027,6.6375 9.72432432,6.6375 L8.32432432,6.6375 L8.32432432,8.775 L9.91351351,8.775 C10.3297297,8.775 10.7837838,8.8125 11.1243243,8.55 C11.3891892,8.3625 11.5405405,7.9875 11.5405405,7.6875 M11.7675676,11.6625 C11.7675676,11.2875 11.5405405,10.9125 11.2,10.725 C10.8594595,10.5375 10.4054054,10.5375 10.027027,10.5375 L8.32432432,10.5375 L8.32432432,12.9 L9.91351351,12.9 C10.3297297,12.9 10.8594595,12.9375 11.2378378,12.675 C11.5783784,12.4875 11.7675676,12.075 11.7675676,11.6625 M12.1459459,9.6 L12.1459459,9.6 C13.3567568,9.8625 14.227027,10.8 14.227027,12.075 C14.227027,12.9375 13.6972973,13.6875 13.0162162,14.175 C12.2972973,14.7 11.3135135,14.7 10.4810811,14.7 L6.01621622,14.7 L6.01621622,4.9125 L10.4432432,4.9125 C11.2378378,4.9125 12.0324324,4.9125 12.7135135,5.325 C13.5081081,5.8125 13.9243243,6.525 13.9243243,7.4625 C13.9243243,8.5875 13.1675676,9.3375 12.1459459,9.6 M19.7891892,9.825 C19.7891892,4.3875 15.3621622,0 9.91351351,0 C4.42702703,0 0,4.3875 0,9.825 C0,15.2625 4.42702703,19.65 9.91351351,19.65 C15.3621622,19.6125 19.7891892,15.225 19.7891892,9.825" id="Shape" fill="#0082CA"></path>
                <path d="M41.2054054,10.35 C39.6918919,6.075 36.0972973,4.5375 31.7459459,4.5375 C29.4378378,4.5375 27.3189189,5.025 25.5027027,6.5625 C23.7243243,8.025 22.8162162,10.05 22.8162162,12.375 C22.8162162,17.775 27.1675676,19.0875 31.6324324,19.9875 C33.1459459,20.325 35.9837838,20.7 35.9837838,22.7625 C35.9837838,24.825 33.7513514,25.425 32.0864865,25.425 C29.5135135,25.425 27.6216216,24.525 26.8648649,21.9375 L21.4918919,23.175 C22.5891892,27.975 26.8648649,30 31.5567568,30 C34.0540541,30 36.7783784,29.55 38.7837838,27.975 C40.7135135,26.5125 41.8864865,24.1875 41.8864865,21.7875 C41.8864865,19.35 40.6378378,17.2875 38.5945946,15.9375 C36.8540541,14.775 34.1297297,14.2875 32.0864865,13.8375 C30.6486486,13.575 28.4918919,13.1625 28.4918919,11.3625 C28.4918919,9.45 30.3837838,9.0375 31.9351351,9.0375 C34.1675676,9.0375 35.4918919,9.8625 36.2108108,11.9625 L41.2054054,10.35 L41.2054054,10.35 Z" id="Shape" fill="#1D1D1B"></path>
            </g>
        </g>
    </g>
</svg>