<?xml version="1.0" encoding="UTF-8" standalone="no"?>
<svg width="237px" height="31px" viewBox="0 0 237 31" version="1.1" xmlns="http://www.w3.org/2000/svg" xmlns:xlink="http://www.w3.org/1999/xlink" xmlns:sketch="http://www.bohemiancoding.com/sketch/ns">
    <!-- Generator: Sketch 3.2.2 (9983) - http://www.bohemiancoding.com/sketch -->
    <title>logo</title>
    <desc>Created with Sketch.</desc>
    <defs></defs>
    <g id="Page-1" stroke="none" stroke-width="1" fill="none" fill-rule="evenodd" sketch:type="MSPage">
        <g id="logo" sketch:type="MSLayerGroup">
            <g id="Group-2" transform="translate(195.000000, 0.000000)" sketch:type="MSShapeGroup">
                <path d="M11.5405405,7.6875 C11.5405405,7.3125 11.3513514,6.975 11.0486486,6.7875 C10.7081081,6.6 10.1027027,6.6375 9.72432432,6.6375 L8.32432432,6.6375 L8.32432432,8.775 L9.91351351,8.775 C10.3297297,8.775 10.7837838,8.8125 11.1243243,8.55 C11.3891892,8.3625 11.5405405,7.9875 11.5405405,7.6875 M11.7675676,11.6625 C11.7675676,11.2875 11.5405405,10.9125 11.2,10.725 C10.8594595,10.5375 10.4054054,10.5375 10.027027,10.5375 L8.32432432,10.5375 L8.32432432,12.9 L9.91351351,12.9 C10.3297297,12.9 10.8594595,12.9375 11.2378378,12.675 C11.5783784,12.4875 11.7675676,12.075 11.7675676,11.6625 M12.1459459,9.6 L12.1459459,9.6 C13.3567568,9.8625 14.227027,10.8 14.227027,12.075 C14.227027,12.9375 13.6972973,13.6875 13.0162162,14.175 C12.2972973,14.7 11.3135135,14.7 10.4810811,14.7 L6.01621622,14.7 L6.01621622,4.9125 L10.4432432,4.9125 C11.2378378,4.9125 12.0324324,4.9125 12.7135135,5.325 C13.5081081,5.8125 13.9243243,6.525 13.9243243,7.4625 C13.9243243,8.5875 13.1675676,9.3375 12.1459459,9.6 M19.7891892,9.825 C19.7891892,4.3875 15.3621622,0 9.91351351,0 C4.42702703,0 0,4.3875 0,9.825 C0,15.2625 4.42702703,19.65 9.91351351,19.65 C15.3621622,19.6125 19.7891892,15.225 19.7891892,9.825" id="Shape" fill="#0082CA"></path>
                <path d="M41.2054054,10.35 C39.6918919,6.075 36.0972973,4.5375 31.7459459,4.5375 C29.4378378,4.5375 27.3189189,5.025 25.5027027,6.5625 C23.7243243,8.025 22.8162162,10.05 22.8162162,12.375 C22.8162162,17.775 27.1675676,19.0875 31.6324324,19.9875 C33.1459459,20.325 35.9837838,20.7 35.9837838,22.7625 C35.9837838,24.825 33.7513514,25.425 32.0864865,25.425 C29.5135135,25.425 27.6216216,24.525 26.8648649,21.9375 L21.4918919,23.175 C22.5891892,27.975 26.8648649,30 31.5567568,30 C34.0540541,30 36.7783784,29.55 38.7837838,27.975 C40.7135135,26.5125 41.8864865,24.1875 41.8864865,21.7875 C41.8864865,19.35 40.6378378,17.2875 38.5945946,15.9375 C36.8540541,14.775 34.1297297,14.2875 32.0864865,13.8375 C30.6486486,13.575 28.4918919,13.1625 28.4918919,11.3625 C28.4918919,9.45 30.3837838,9.0375 31.9351351,9.0375 C34.1675676,9.0375 35.4918919,9.8625 36.2108108,11.9625 L41.2054054,10.35 L41.2054054,10.35 Z" id="Shape" fill="#1D1D1B"></path>
            </g>
            <path d="M14.724,12.36 C14.3639982,11.3039947 13.8420034,10.5540022 13.158,10.11 C12.4739966,9.66599778 11.5800055,9.444 10.476,9.444 C10.0919981,9.444 9.69600204,9.4739997 9.288,9.534 C8.87999796,9.5940003 8.51400162,9.70799916 8.19,9.876 C7.86599838,10.0440008 7.59600108,10.2779985 7.38,10.578 C7.16399892,10.8780015 7.056,11.2679976 7.056,11.748 C7.056,12.2040023 7.1759988,12.5759986 7.416,12.864 C7.6560012,13.1520014 7.9559982,13.3859991 8.316,13.566 C8.6760018,13.7460009 9.05999796,13.8839995 9.468,13.98 C9.87600204,14.0760005 10.2599982,14.1599996 10.62,14.232 C11.1240025,14.3520006 11.6639971,14.4719994 12.24,14.592 C12.8160029,14.7120006 13.3859972,14.8499992 13.95,15.006 C14.5140028,15.1620008 15.0659973,15.3479989 15.606,15.564 C16.1460027,15.7800011 16.6319978,16.0319986 17.064,16.32 C18.072005,16.9920034 18.8639971,17.825995 19.44,18.822 C20.0160029,19.818005 20.304,20.9279939 20.304,22.152 C20.304,23.3760061 20.0340027,24.5279946 19.494,25.608 C18.9539973,26.6880054 18.2040048,27.5999963 17.244,28.344 C16.235995,29.1120038 15.1020063,29.6399986 13.842,29.928 C12.5819937,30.2160014 11.3280062,30.36 10.08,30.36 C8.92799424,30.36 7.8120054,30.2280013 6.732,29.964 C5.6519946,29.6999987 4.66800444,29.2920028 3.78,28.74 C2.89199556,28.1879972 2.13000318,27.4800043 1.494,26.616 C0.85799682,25.7519957 0.39600144,24.720006 0.108,23.52 L5.436,22.296 C5.7960018,23.5920065 6.41999556,24.4979974 7.308,25.014 C8.19600444,25.5300026 9.28799352,25.788 10.584,25.788 C10.992002,25.788 11.4239977,25.7460004 11.88,25.662 C12.3360023,25.5779996 12.7499981,25.434001 13.122,25.23 C13.4940019,25.025999 13.8059987,24.7500017 14.058,24.402 C14.3100013,24.0539983 14.436,23.6280025 14.436,23.124 C14.436,22.6199975 14.2800016,22.2060016 13.968,21.882 C13.6559984,21.5579984 13.2780022,21.294001 12.834,21.09 C12.3899978,20.885999 11.9220025,20.7300005 11.43,20.622 C10.9379975,20.5139995 10.5000019,20.4240004 10.116,20.352 C9.01199448,20.1359989 7.93800522,19.8720016 6.894,19.56 C5.84999478,19.2479984 4.92000408,18.8100028 4.104,18.246 C3.28799592,17.6819972 2.63400246,16.9620044 2.142,16.086 C1.64999754,15.2099956 1.404,14.1000067 1.404,12.756 C1.404,11.6039942 1.62599778,10.5360049 2.07,9.552 C2.51400222,8.56799508 3.17999556,7.70400372 4.068,6.96 C4.98000456,6.19199616 5.95199484,5.66400144 6.984,5.376 C8.01600516,5.08799856 9.10799424,4.944 10.26,4.944 C11.3400054,4.944 12.3659951,5.04599898 13.338,5.25 C14.3100049,5.45400102 15.197996,5.78399772 16.002,6.24 C16.806004,6.69600228 17.5139969,7.28999634 18.126,8.022 C18.7380031,8.75400366 19.2359981,9.6599946 19.62,10.74 L14.724,12.36 Z M30.784,14.844 C30.0639964,14.844 29.506002,15.0299981 29.11,15.402 C28.713998,15.7740019 28.414001,16.2359972 28.21,16.788 C28.005999,17.3400028 27.8800002,17.9279969 27.832,18.552 C27.7839998,19.1760031 27.76,19.7519974 27.76,20.28 C27.76,20.8080026 27.7719999,21.4439963 27.796,22.188 C27.8200001,22.9320037 27.927999,23.6459966 28.12,24.33 C28.312001,25.0140034 28.605998,25.6019975 29.002,26.094 C29.398002,26.5860025 29.9799962,26.832 30.748,26.832 C31.4920037,26.832 32.0739979,26.634002 32.494,26.238 C32.9140021,25.841998 33.225999,25.3500029 33.43,24.762 C33.634001,24.1739971 33.7599998,23.5440034 33.808,22.872 C33.8560002,22.1999966 33.88,21.5880028 33.88,21.036 C33.88,20.3159964 33.8500003,19.554004 33.79,18.75 C33.7299997,17.945996 33.5680013,17.1960035 33.304,16.5 C33.0879989,15.899997 32.7700021,15.4740013 32.35,15.222 C31.9299979,14.9699987 31.4080031,14.844 30.784,14.844 L30.784,14.844 Z M30.748,11.352 C32.1880072,11.352 33.4539945,11.6039975 34.546,12.108 C35.6380055,12.6120025 36.5559963,13.2959957 37.3,14.16 C38.0440037,15.0240043 38.6079981,16.0439941 38.992,17.22 C39.3760019,18.3960059 39.568,19.6559933 39.568,21 C39.568,22.2960065 39.364002,23.5139943 38.956,24.654 C38.547998,25.7940057 37.9600038,26.7899957 37.192,27.642 C36.4239962,28.4940043 35.4940055,29.1599976 34.402,29.64 C33.3099945,30.1200024 32.0920067,30.36 30.748,30.36 C29.3319929,30.36 28.0900053,30.1140025 27.022,29.622 C25.9539947,29.1299975 25.0480037,28.4520043 24.304,27.588 C23.5599963,26.7239957 23.0020019,25.7100058 22.63,24.546 C22.2579981,23.3819942 22.072,22.1400066 22.072,20.82 C22.072,19.4999934 22.2639981,18.2580058 22.648,17.094 C23.0320019,15.9299942 23.5899963,14.9280042 24.322,14.088 C25.0540037,13.2479958 25.9599946,12.5820025 27.04,12.09 C28.1200054,11.5979975 29.355993,11.352 30.748,11.352 L30.748,11.352 Z M42.02,5.304 L47.312,5.304 L47.312,30 L42.02,30 L42.02,5.304 Z M59.664,30 L55.452,30 L49.188,11.712 L54.804,11.712 L58.332,23.304 L61.896,11.712 L65.892,11.712 L59.664,30 Z M72.952,10.056 L67.66,10.056 L67.66,4.944 L72.952,4.944 L72.952,10.056 Z M72.952,30 L67.66,30 L67.66,11.712 L72.952,11.712 L72.952,30 Z M86.96,21.252 C86.4559975,21.3000002 85.8740033,21.3779995 85.214,21.486 C84.5539967,21.5940005 83.9300029,21.7679988 83.342,22.008 C82.7539971,22.2480012 82.256002,22.571998 81.848,22.98 C81.439998,23.388002 81.236,23.9279966 81.236,24.6 C81.236,25.3200036 81.439998,25.9019978 81.848,26.346 C82.256002,26.7900022 82.8319963,27.012 83.576,27.012 C84.1280028,27.012 84.6319977,26.8800013 85.088,26.616 C85.5440023,26.3519987 85.9279984,25.9800024 86.24,25.5 C86.6240019,24.9239971 86.8399998,24.3540028 86.888,23.79 C86.9360002,23.2259972 86.96,22.6200032 86.96,21.972 L86.96,21.252 Z M87.464,30 C87.3439994,29.5199976 87.2660002,29.0460023 87.23,28.578 C87.1939998,28.1099977 87.1879999,27.6360024 87.212,27.156 C86.4439962,28.2360054 85.6220044,29.0399974 84.746,29.568 C83.8699956,30.0960026 82.7480068,30.36 81.38,30.36 C80.5639959,30.36 79.8080035,30.2520011 79.112,30.036 C78.4159965,29.8199989 77.8100026,29.4960022 77.294,29.064 C76.7779974,28.6319978 76.3700015,28.0920032 76.07,27.444 C75.7699985,26.7959968 75.62,26.0400043 75.62,25.176 C75.62,23.8079932 75.9979962,22.6740045 76.754,21.774 C77.5100038,20.8739955 78.4999939,20.1960023 79.724,19.74 C80.7800053,19.331998 81.9679934,19.0680006 83.288,18.948 C84.6080066,18.8279994 85.8319944,18.7080006 86.96,18.588 L86.96,18.156 C86.96,17.747998 86.9480001,17.3280022 86.924,16.896 C86.8999999,16.4639978 86.7560013,16.0800017 86.492,15.744 C86.2519988,15.4319984 85.934002,15.2100007 85.538,15.078 C85.141998,14.9459993 84.740002,14.88 84.332,14.88 C83.4919958,14.88 82.7540032,15.0959978 82.118,15.528 C81.4819968,15.9600022 81.164,16.6319954 81.164,17.544 L76.16,17.076 C76.3040007,15.9719945 76.6579972,15.0540037 77.222,14.322 C77.7860028,13.5899963 78.469996,13.0020022 79.274,12.558 C80.078004,12.1139978 80.9719951,11.8020009 81.956,11.622 C82.9400049,11.4419991 83.9119952,11.352 84.872,11.352 C85.3280023,11.352 85.8199974,11.3819997 86.348,11.442 C86.8760026,11.5020003 87.3979974,11.5979993 87.914,11.73 C88.4300026,11.8620007 88.9279976,12.029999 89.408,12.234 C89.8880024,12.438001 90.3079982,12.6959984 90.668,13.008 C91.1240023,13.3920019 91.4719988,13.7999978 91.712,14.232 C91.9520012,14.6640022 92.1199995,15.1259975 92.216,15.618 C92.3120005,16.1100025 92.36,16.6199974 92.36,17.148 L92.36,18.732 L92.36,27.264 C92.36,27.7440024 92.3839998,28.2059978 92.432,28.65 C92.4800002,29.0940022 92.5759993,29.5439977 92.72,30 L87.464,30 Z M116.884,30 L116.884,18.264 L105.436,18.264 L105.436,30 L102.34,30 L102.34,5.304 L105.436,5.304 L105.436,15.564 L116.884,15.564 L116.884,5.304 L119.98,5.304 L119.98,30 L116.884,30 Z M127.184,20.712 C127.184,21.5520042 127.255999,22.4159956 127.4,23.304 C127.544001,24.1920044 127.819998,24.9959964 128.228,25.716 C128.636002,26.4120035 129.193996,26.9699979 129.902,27.39 C130.610004,27.8100021 131.383996,28.02 132.224,28.02 C133.160005,28.02 133.987996,27.7920023 134.708,27.336 C135.428004,26.8799977 136.003998,26.2320042 136.436,25.392 C136.820002,24.6719964 137.065999,23.910004 137.174,23.106 C137.282001,22.301996 137.336,21.504004 137.336,20.712 C137.336,19.8479957 137.264001,18.9840043 137.12,18.12 C136.975999,17.2559957 136.664002,16.4520037 136.184,15.708 C135.751998,15.0359966 135.182004,14.5080019 134.474,14.124 C133.765996,13.7399981 133.016004,13.548 132.224,13.548 C131.335996,13.548 130.526004,13.7819977 129.794,14.25 C129.061996,14.7180023 128.492002,15.347996 128.084,16.14 C127.747998,16.8120034 127.514001,17.5559959 127.382,18.372 C127.249999,19.1880041 127.184,19.9679963 127.184,20.712 L127.184,20.712 Z M124.052,20.712 C124.052,19.4399936 124.231998,18.2340057 124.592,17.094 C124.952002,15.9539943 125.479997,14.9520043 126.176,14.088 C126.872003,13.2239957 127.747995,12.5340026 128.804,12.018 C129.860005,11.5019974 131.071993,11.244 132.44,11.244 C133.784007,11.244 134.959995,11.5139973 135.968,12.054 C136.976005,12.5940027 137.809997,13.3079956 138.47,14.196 C139.130003,15.0840044 139.627998,16.0979943 139.964,17.238 C140.300002,18.3780057 140.468,19.547994 140.468,20.748 C140.468,22.0200064 140.288002,23.2379942 139.928,24.402 C139.567998,25.5660058 139.028004,26.5919956 138.308,27.48 C137.587996,28.3680044 136.700005,29.0699974 135.644,29.586 C134.587995,30.1020026 133.364007,30.36 131.972,30.36 C130.603993,30.36 129.422005,30.0840028 128.426,29.532 C127.429995,28.9799972 126.608003,28.2540045 125.96,27.354 C125.311997,26.4539955 124.832002,25.4220058 124.52,24.258 C124.207998,23.0939942 124.052,21.912006 124.052,20.712 L124.052,20.712 Z M146.484,11.712 L146.484,15.24 L146.556,15.24 C147.036002,14.1359945 147.743995,13.1940039 148.68,12.414 C149.616005,11.6339961 150.731994,11.244 152.028,11.244 C153.372007,11.244 154.493995,11.645996 155.394,12.45 C156.294004,13.254004 156.887999,14.3039935 157.176,15.6 C157.680003,14.3279936 158.435995,13.2840041 159.444,12.468 C160.452005,11.6519959 161.663993,11.244 163.08,11.244 C164.016005,11.244 164.897996,11.4839976 165.726,11.964 C166.554004,12.4440024 167.207998,13.079996 167.688,13.872 C168.144002,14.6400038 168.402,15.4919953 168.462,16.428 C168.522,17.3640047 168.552,18.2519958 168.552,19.092 L168.552,30 L165.744,30 L165.744,19.092 C165.744,18.4679969 165.732,17.8440031 165.708,17.22 C165.684,16.5959969 165.528001,16.0080028 165.24,15.456 C164.927998,14.855997 164.496003,14.3880017 163.944,14.052 C163.391997,13.7159983 162.804003,13.548 162.18,13.548 C161.483997,13.548 160.824003,13.7399981 160.2,14.124 C159.575997,14.5080019 159.060002,14.999997 158.652,15.6 C158.123997,16.3440037 157.824,17.0699965 157.752,17.778 C157.68,18.4860035 157.644,19.2719957 157.644,20.136 L157.644,30 L154.836,30 L154.836,18.408 C154.836,17.9039975 154.8,17.3760028 154.728,16.824 C154.656,16.2719972 154.488001,15.7680023 154.224,15.312 C153.887998,14.7599972 153.450003,14.3280016 152.91,14.016 C152.369997,13.7039984 151.788003,13.548 151.164,13.548 C150.539997,13.548 149.928003,13.7279982 149.328,14.088 C148.727997,14.4480018 148.236002,14.8679976 147.852,15.348 C147.371998,15.948003 147.066001,16.6019965 146.934,17.31 C146.801999,18.0180035 146.736,18.7559962 146.736,19.524 L146.736,30 L143.928,30 L143.928,11.712 L146.484,11.712 Z M185.188,18.984 C185.188,18.2399963 185.086001,17.5260034 184.882,16.842 C184.677999,16.1579966 184.372002,15.5640025 183.964,15.06 C183.555998,14.5559975 183.046003,14.1540015 182.434,13.854 C181.821997,13.5539985 181.108004,13.404 180.292,13.404 C179.523996,13.404 178.828003,13.5599984 178.204,13.872 C177.579997,14.1840016 177.046002,14.5979974 176.602,15.114 C176.157998,15.6300026 175.810001,16.2239966 175.558,16.896 C175.305999,17.5680034 175.168,18.2639964 175.144,18.984 L185.188,18.984 Z M187.996,24.996 C187.731999,25.8360042 187.342003,26.5859967 186.826,27.246 C186.309997,27.9060033 185.710003,28.4699977 185.026,28.938 C184.341997,29.4060023 183.586004,29.7599988 182.758,30 C181.929996,30.2400012 181.084004,30.36 180.22,30.36 C178.827993,30.36 177.610005,30.1020026 176.566,29.586 C175.521995,29.0699974 174.646004,28.3800043 173.938,27.516 C173.229996,26.6519957 172.702002,25.6440058 172.354,24.492 C172.005998,23.3399942 171.832,22.1280064 171.832,20.856 C171.832,19.6079938 172.017998,18.4020058 172.39,17.238 C172.762002,16.0739942 173.301996,15.0480044 174.01,14.16 C174.718004,13.2719956 175.599995,12.5640026 176.656,12.036 C177.712005,11.5079974 178.923993,11.244 180.292,11.244 C181.708007,11.244 182.931995,11.5199972 183.964,12.072 C184.996005,12.6240028 185.835997,13.3559954 186.484,14.268 C187.132003,15.1800046 187.599999,16.2239941 187.888,17.4 C188.176001,18.5760059 188.308,19.7999936 188.284,21.072 L175,21.072 C175,21.7920036 175.042,22.4879966 175.126,23.16 C175.21,23.8320034 175.419998,24.5159965 175.756,25.212 C176.188002,26.0760043 176.835996,26.7539975 177.7,27.246 C178.564004,27.7380025 179.475995,27.984 180.436,27.984 C181.636006,27.984 182.649996,27.6660032 183.478,27.03 C184.306004,26.3939968 184.923998,25.5360054 185.332,24.456 L187.996,24.996 Z" id="Solvia-Home" fill="#000000" sketch:type="MSShapeGroup"></path>
        </g>
    </g>
</svg>